<?xml version="1.0" encoding="iso-8859-1"?>
<!-- Generator: Adobe Illustrator 19.0.0, SVG Export Plug-In . SVG Version: 6.00 Build 0)  -->
<svg version="1.1" id="Layer_1" xmlns="http://www.w3.org/2000/svg" xmlns:xlink="http://www.w3.org/1999/xlink" x="0px" y="0px"
	 viewBox="0 0 512 512" style="enable-background:new 0 0 512 512;" xml:space="preserve">
<path style="fill:#8AE9FF;" d="M501.498,463.177V327.909c0-10.194-3.971-19.779-11.179-26.988
	c-7.209-7.209-16.793-11.179-26.988-11.179s-19.78,3.971-26.988,11.178c-7.21,7.21-11.179,16.795-11.179,26.989l0.001,43.125
	l-115.111-115.11L425.466,140.51v43.125c0,10.195,3.971,19.78,11.179,26.989c7.209,7.209,16.794,11.178,26.99,11.178
	c10.194-0.001,19.778-3.971,26.987-11.178c7.209-7.209,11.178-16.794,11.179-26.988V48.368
	c-0.001-10.194-3.971-19.778-11.179-26.988c-7.209-7.209-16.794-11.178-26.988-11.179H328.365c-10.194,0-19.779,3.971-26.988,11.179
	c-7.209,7.209-11.179,16.793-11.179,26.988s3.971,19.78,11.178,26.988c7.21,7.21,16.795,11.179,26.989,11.179l43.125-0.001
	L256.077,201.947l-115.11-115.11h43.125c10.195,0,19.78-3.971,26.989-11.179c7.209-7.209,11.178-16.794,11.178-26.99
	c0-10.194-3.97-19.778-11.178-26.987s-16.794-11.178-26.988-11.179H48.824c-10.194,0.001-19.778,3.971-26.988,11.179
	c-7.209,7.209-11.178,16.794-11.179,26.988v135.27c0,10.194,3.971,19.779,11.179,26.988c7.209,7.209,16.793,11.179,26.988,11.179
	s19.78-3.971,26.988-11.178c7.21-7.21,11.179-16.795,11.179-26.989v-43.125l115.11,115.109L86.534,371.49v-43.125
	c0-10.195-3.971-19.78-11.179-26.989c-7.209-7.209-16.794-11.178-26.99-11.178c-10.194,0-19.778,3.971-26.987,11.178
	c-7.209,7.209-11.178,16.794-11.179,26.988v135.269c0.001,10.194,3.971,19.778,11.179,26.988
	c7.209,7.209,16.794,11.178,26.988,11.179h135.269c10.194,0,19.779-3.971,26.988-11.179c7.209-7.209,11.179-16.793,11.179-26.988
	s-3.971-19.78-11.178-26.988c-7.21-7.21-16.795-11.179-26.989-11.179l-43.125,0.001L256.075,309.9l115.11,115.109l-43.125-0.001
	c-10.195,0.001-19.78,3.971-26.989,11.179c-7.209,7.209-11.178,16.794-11.178,26.99c0,10.194,3.97,19.778,11.178,26.987
	c7.209,7.209,16.794,11.178,26.988,11.179h135.269c10.194-0.001,19.778-3.971,26.988-11.179
	C497.527,482.956,501.497,473.372,501.498,463.177z"/>
<g>
	<path style="fill:#248A9C;" d="M48.367,512c-12.92-0.001-25.066-5.032-34.2-14.167C5.033,488.699,0.001,476.554,0,463.634v-135.27
		c0.001-12.919,5.032-25.066,14.167-34.2c9.135-9.135,21.281-14.166,34.199-14.167c12.919,0,25.066,5.03,34.201,14.166
		c9.135,9.135,14.167,21.281,14.168,34.2v18.502l90.941-90.943l-90.486-90.486v18.502c0.001,12.918-5.03,25.065-14.166,34.201
		c-9.136,9.135-21.282,14.166-34.2,14.167c-12.92,0-25.066-5.032-34.2-14.168c-9.135-9.134-14.167-21.281-14.167-34.2L0.456,48.67
		c0.001-12.92,5.033-25.066,14.168-34.2S35.903,0.304,48.822,0.303h135.271c12.919,0,25.065,5.032,34.2,14.167
		c9.134,9.135,14.166,21.281,14.166,34.198c0.001,12.919-5.03,25.067-14.166,34.202c-9.133,9.134-21.28,14.166-34.2,14.167h-18.503
		l90.487,90.486l90.789-90.789h-18.501c-12.92,0-25.067-5.031-34.201-14.167c-9.133-9.134-14.166-21.28-14.167-34.199
		c0.001-12.92,5.032-25.066,14.167-34.2c9.135-9.135,21.282-14.167,34.2-14.168h135.27c12.92,0.001,25.066,5.032,34.2,14.167
		c9.133,9.134,14.166,21.28,14.167,34.199v135.27c-0.001,12.919-5.032,25.066-14.167,34.2c-9.135,9.135-21.281,14.166-34.199,14.167
		c-12.919,0-25.066-5.03-34.201-14.166c-9.135-9.135-14.167-21.281-14.168-34.2v-18.502l-90.789,90.789l90.486,90.486v-18.501
		c0-12.919,5.031-25.066,14.167-34.201c9.134-9.135,21.281-14.166,34.2-14.167c12.92,0,25.066,5.032,34.2,14.168
		c9.135,9.134,14.167,21.281,14.167,34.2l0.001,135.269c0,0,0,0,0,0.001c-0.001,12.918-5.033,25.064-14.168,34.199
		c-9.134,9.134-21.28,14.166-34.198,14.167H328.061c-12.919,0-25.065-5.032-34.199-14.167c-9.135-9.136-14.167-21.281-14.167-34.199
		c-0.001-12.919,5.03-25.067,14.167-34.202c9.133-9.134,21.279-14.166,34.2-14.167h18.501l-90.486-90.486l-90.942,90.943h18.501
		c12.92,0,25.067,5.031,34.201,14.167c9.133,9.134,14.166,21.28,14.167,34.199c-0.001,12.92-5.032,25.066-14.167,34.2
		c-9.135,9.135-21.282,14.167-34.2,14.167L48.367,512z M48.367,300.396c-7.471,0-14.494,2.91-19.776,8.192
		c-5.282,5.282-8.191,12.305-8.192,19.777v135.268c0.001,7.47,2.911,14.493,8.192,19.775c5.282,5.282,12.305,8.192,19.777,8.193
		h135.268c7.47,0,14.494-2.91,19.777-8.192c5.282-5.282,8.191-12.305,8.192-19.776c-0.001-7.47-2.911-14.493-8.192-19.775
		c-5.282-5.283-12.305-8.192-19.777-8.192h-43.124c-4.126,0-7.844-2.486-9.422-6.296c-1.579-3.811-0.706-8.198,2.21-11.115
		l115.566-115.566c1.913-1.912,4.507-2.987,7.212-2.987c2.705,0,5.298,1.075,7.212,2.987l115.109,115.109
		c2.916,2.917,3.79,7.305,2.211,11.115c-1.579,3.81-5.297,6.296-9.423,6.296l0,0h-43.124c-7.471,0-14.495,2.91-19.777,8.192
		c-5.283,5.283-8.192,12.306-8.191,19.777c0,7.471,2.91,14.493,8.191,19.776c5.283,5.282,12.305,8.191,19.777,8.192h135.269
		c7.469-0.001,14.493-2.911,19.775-8.193c5.283-5.282,8.192-12.305,8.193-19.776l-0.001-135.268c0-7.471-2.91-14.493-8.191-19.776
		c-5.283-5.283-12.305-8.192-19.777-8.193c-7.47,0-14.494,2.91-19.776,8.192c-5.283,5.283-8.192,12.306-8.192,19.777l0.001,43.125
		c0,4.125-2.486,7.844-6.296,9.423c-3.811,1.577-8.199,0.706-11.115-2.21L302.841,263.135c-1.912-1.912-2.987-4.507-2.987-7.212
		c0-2.705,1.075-5.3,2.987-7.212l115.413-115.413c2.917-2.916,7.304-3.79,11.115-2.21c3.81,1.579,6.296,5.297,6.296,9.423
		l-0.001,43.125c0.001,7.47,2.911,14.494,8.192,19.777c5.283,5.282,12.306,8.191,19.777,8.191s14.494-2.91,19.776-8.192
		c5.282-5.282,8.191-12.305,8.192-19.777V48.367c-0.001-7.47-2.911-14.493-8.192-19.775c-5.282-5.282-12.305-8.192-19.777-8.193
		H328.364c-7.47,0-14.494,2.91-19.777,8.192c-5.282,5.282-8.191,12.305-8.192,19.776c0.001,7.47,2.911,14.493,8.192,19.775
		c5.282,5.283,12.305,8.192,19.777,8.192h43.124c4.126,0,7.844,2.486,9.422,6.296c1.579,3.811,0.706,8.198-2.21,11.115
		L263.288,209.159c-3.984,3.983-10.44,3.983-14.425,0L133.754,94.049c-2.916-2.917-3.79-7.305-2.211-11.115
		c1.579-3.811,5.297-6.296,9.423-6.296h43.125c7.472,0,14.495-2.91,19.777-8.192c5.283-5.283,8.192-12.306,8.191-19.777
		c0-7.471-2.91-14.493-8.191-19.776c-5.282-5.282-12.305-8.191-19.776-8.192H48.823c-7.47,0-14.493,2.91-19.775,8.192
		c-5.283,5.282-8.192,12.306-8.193,19.777l0.001,135.268c0,7.471,2.91,14.493,8.192,19.776c5.282,5.283,12.304,8.192,19.776,8.193
		c7.469,0,14.494-2.91,19.777-8.192c5.282-5.282,8.191-12.305,8.19-19.775v-43.126c0-4.125,2.486-7.844,6.296-9.423
		c3.811-1.579,8.198-0.707,11.115,2.21L209.311,248.71c3.983,3.983,3.983,10.441,0,14.424L93.746,378.702
		c-2.917,2.917-7.307,3.788-11.115,2.211c-3.81-1.579-6.296-5.297-6.296-9.423l0.001-43.125c-0.001-7.47-2.911-14.494-8.192-19.777
		C62.861,303.305,55.837,300.396,48.367,300.396z"/>
	<path style="fill:#248A9C;" d="M48.278,133.012c-5.632,0-10.199-4.566-10.199-10.199v-2.158c0-5.633,4.567-10.199,10.199-10.199
		s10.199,4.566,10.199,10.199v2.158C58.477,128.446,53.91,133.012,48.278,133.012z"/>
	<path style="fill:#248A9C;" d="M48.278,93.529c-5.632,0-10.199-4.566-10.199-10.199V47.657c0-5.633,4.567-10.199,10.199-10.199
		s10.199,4.566,10.199,10.199V83.33C58.477,88.963,53.91,93.529,48.278,93.529z"/>
</g>
<g>
</g>
<g>
</g>
<g>
</g>
<g>
</g>
<g>
</g>
<g>
</g>
<g>
</g>
<g>
</g>
<g>
</g>
<g>
</g>
<g>
</g>
<g>
</g>
<g>
</g>
<g>
</g>
<g>
</g>
</svg>
